<svg width="25" height="24" viewBox="0 0 25 24" fill="none" xmlns="http://www.w3.org/2000/svg">
<path fill-rule="evenodd" clip-rule="evenodd" d="M21.5 16.5H18.5C17.6429 16.5 17 17.1429 17 18V21C17 22.7143 15.7143 24 14 24H11C9.28571 24 8 22.7143 8 21V18C8 17.1429 7.35714 16.5 6.5 16.5H3.5C1.78571 16.5 0.5 15.2143 0.5 13.5V10.5C0.5 8.78571 1.78571 7.5 3.5 7.5H5.64286C6.07143 7.5 6.28571 7.92857 6.28571 8.14286C6.28571 8.57143 5.85714 8.78571 5.64286 8.78571H3.71429C2.64286 8.78571 1.78571 9.64286 1.78571 10.7143V12.8571C1.78571 13.9286 2.64286 14.7857 3.71429 14.7857H6.71429C8.21429 14.7857 9.28571 15.8571 9.28571 17.3571V20.3571C9.28571 21.4286 10.1429 22.2857 11.2143 22.2857H13.3571C14.4286 22.2857 15.2857 21.4286 15.2857 20.3571V17.3571C15.2857 15.8571 16.3571 14.7857 17.8571 14.7857H20.8571C21.9286 14.7857 22.7857 13.9286 22.7857 12.8571V10.7143C22.7857 9.64286 21.9286 8.78571 20.8571 8.78571H17.8571C16.3571 8.78571 15.2857 7.71429 15.2857 6.21429V3.21429C15.2857 2.14286 14.4286 1.28571 13.3571 1.28571H11.2143C10.1429 1.28571 9.28571 2.14286 9.28571 3.21429V5.14286C9.28571 5.57143 8.85714 5.78571 8.64286 5.78571C8.21429 5.78571 8 5.35714 8 5.14286V3C8 1.28571 9.28571 0 11 0H14C15.7143 0 17 1.28571 17 3V6C17 6.85714 17.6429 7.5 18.5 7.5H21.5C23.2143 7.5 24.5 8.78571 24.5 10.5V13.5C24.5 15.2143 23.2143 16.5 21.5 16.5ZM8.85714 7.5C9.28571 7.5 9.5 7.92857 9.5 8.14286C9.5 8.57143 9.07143 8.78571 8.85714 8.78571C8.42857 8.78571 8.21429 8.35714 8.21429 8.14286C8.21429 7.71429 8.64286 7.5 8.85714 7.5Z" fill="black"/>
</svg>
