<svg width="21" height="20" viewBox="0 0 21 20" fill="none" xmlns="http://www.w3.org/2000/svg">
<path fill-rule="evenodd" clip-rule="evenodd" d="M18.7301 11.5044C19.0841 11.5044 19.4381 11.8584 19.4381 12.2124C19.4381 12.5664 19.0841 12.9204 18.7301 12.9204C18.3761 12.9204 18.0221 12.5664 18.0221 12.2124C18.0221 11.8584 18.3761 11.5044 18.7301 11.5044ZM19.969 10.2655C19.615 10.2655 19.2611 9.9115 19.2611 9.55752C19.2611 9.38053 18.1991 8.67257 18.0221 8.31858L17.3142 7.61062C16.9602 7.25664 16.7832 6.72566 16.7832 6.0177V3.18584C16.7832 2.83186 16.4292 2.47788 16.0752 2.47788H14.8363C14.4823 2.47788 14.1283 2.83186 14.1283 3.18584V3.36283C14.1283 3.53982 13.9513 3.89381 13.5973 3.89381C13.4204 3.89381 13.4204 3.89381 13.2434 3.71681L11.1195 1.59292C10.5885 1.06195 9.88053 1.06195 9.34956 1.59292L1.91593 9.02655C1.73894 9.20354 1.56195 9.55752 1.56195 9.9115C1.56195 10.6195 2.09292 11.1504 2.80088 11.1504C3.33186 11.1504 4.03982 12.0354 4.03982 13.0973V17.5221C4.03982 18.2301 4.5708 18.7611 5.27876 18.7611H7.22566C7.57965 18.7611 7.93363 18.4071 7.93363 18.0531V13.9823C7.93363 13.0973 8.64159 12.3894 9.52655 12.3894H11.4735C12.3584 12.3894 13.0664 13.0973 13.0664 13.9823V18.0531C13.0664 18.4071 13.4204 18.7611 13.7743 18.7611H15.7212C16.4292 18.7611 16.9602 18.2301 16.9602 17.5221V13.0973C16.9602 12.7434 17.3142 12.3894 17.6681 12.3894C18.0221 12.3894 18.3761 12.7434 18.3761 13.0973V17.5221C18.3761 18.9381 17.3142 20 15.8982 20H13.9513C12.8894 20 12.0044 19.115 12.0044 18.0531V14.3363C12.0044 13.9823 11.6504 13.6283 11.2965 13.6283H10.0575C9.70354 13.6283 9.34956 13.9823 9.34956 14.3363V18.0531C9.34956 19.115 8.4646 20 7.40265 20H5.45575C4.03982 20 2.97788 18.9381 2.97788 17.5221V13.0973C2.97788 12.7434 2.62389 12.5664 2.26991 12.3894C1.20796 12.0354 0.5 11.1504 0.5 9.9115V10.0885C0.5 9.38053 0.676991 8.67257 1.20796 8.14159L8.64159 0.707965C9.17257 0.176991 9.70354 0 10.4115 0C11.1195 0 11.6504 0.176991 12.1814 0.707965L13.2434 1.76991C13.5973 1.41593 13.9513 1.23894 14.4823 1.23894H16.4292C17.3142 1.23894 18.0221 1.9469 18.0221 2.83186V6.0177C18.0221 6.37168 18.1991 6.72566 18.3761 6.90265L19.792 8.31858C20.323 8.84956 20.5 9.02655 20.5 9.38053C20.5 9.73451 20.146 10.0885 19.792 10.0885L19.969 10.2655Z" fill="black"/>
</svg>
