<svg width="22" height="17" viewBox="0 0 22 17" fill="none" xmlns="http://www.w3.org/2000/svg">
<path fill-rule="evenodd" clip-rule="evenodd" d="M2.77027 1.14607C2.39189 1.14607 2.2027 0.764045 2.2027 0.573034C2.2027 0.191011 2.58108 0 2.77027 0C3.14865 0 3.33784 0.382022 3.33784 0.573034C3.33784 0.955056 2.95946 1.14607 2.77027 1.14607ZM21.1216 3.62921L13.1757 10.8876C12.2297 11.8427 10.527 11.8427 9.39189 10.8876L4.66216 6.11236L3.14865 4.58427C2.95946 4.39326 2.77027 4.39326 2.58108 4.39326C2.2027 4.39326 2.01351 4.77528 2.01351 4.96629V14.3258C2.01351 15.0899 2.58108 15.6629 3.33784 15.6629H19.0405C19.7973 15.6629 20.3649 15.0899 20.3649 14.3258V6.30337C20.3649 5.92135 20.7432 5.73034 20.9324 5.73034C21.3108 5.73034 21.5 6.11236 21.5 6.30337V14.3258C21.5 15.8539 20.3649 17 18.8514 17H3.14865C1.63514 17 0.5 15.8539 0.5 14.3258V4.96629C0.5 3.82022 1.44595 3.05618 2.39189 3.05618C2.95946 3.05618 3.33784 3.24719 3.71622 3.62921L9.95946 9.93258C10.527 10.5056 11.2838 10.5056 11.8514 9.93258L19.7973 2.67416C19.9865 2.48315 20.1757 2.10112 20.1757 1.7191C20.1757 0.955056 19.6081 1.14607 18.8514 1.14607H5.04054C4.66216 1.14607 4.47297 0.764045 4.47297 0.573034C4.47297 0.191011 4.85135 0 5.04054 0H18.8514C19.9865 0 21.1216 0.382022 21.3108 1.33708C21.5 2.29213 21.3108 3.24719 20.5541 3.82022L21.1216 3.62921ZM17.527 13.5618L15.6351 11.6517C15.4459 11.4607 15.4459 10.8876 15.6351 10.6966C15.8243 10.5056 16.3919 10.5056 16.5811 10.6966L18.473 12.6067C18.6622 12.7978 18.6622 13.3708 18.473 13.5618C18.2838 13.7528 17.7162 13.7528 17.527 13.5618ZM4.09459 13.5618C3.90541 13.3708 3.90541 12.7978 4.09459 12.6067L5.98649 10.6966C6.17568 10.5056 6.74324 10.5056 6.93243 10.6966C7.12162 10.8876 7.12162 11.4607 6.93243 11.6517L5.04054 13.5618C4.85135 13.7528 4.28378 13.7528 4.09459 13.5618Z" fill="black"/>
</svg>
