<svg width="10" height="10" viewBox="0 0 10 10" fill="none" xmlns="http://www.w3.org/2000/svg">
<path fill-rule="evenodd" clip-rule="evenodd" d="M5.55831 8.13896C5.75682 8.13896 5.85608 8.23821 5.85608 8.43672C5.85608 8.63524 5.75682 8.73449 5.55831 8.73449C5.3598 8.73449 5.26055 8.63524 5.26055 8.43672C5.26055 8.23821 5.3598 8.13896 5.55831 8.13896ZM9.62779 9.62779C9.13151 10.1241 8.33747 10.1241 7.84119 9.62779L7.04715 8.83375C6.2531 8.0397 6.55087 7.54342 7.04715 7.04715C7.74194 6.35236 8.13896 5.45906 8.13896 4.36725C8.13896 2.28288 6.45161 0.595533 4.36725 0.595533C2.28288 0.595533 0.595533 2.28288 0.595533 4.36725C0.595533 6.45161 2.28288 8.13896 4.36725 8.13896C4.56576 8.13896 4.66501 8.23821 4.66501 8.43672C4.66501 8.63524 4.56576 8.73449 4.36725 8.73449C1.98511 8.73449 0 6.74938 0 4.36725C0 1.98511 1.98511 0 4.36725 0C5.55831 0 6.65012 0.496278 7.44417 1.29032C8.23821 2.08437 8.73449 3.27543 8.73449 4.36725C8.73449 5.16129 8.53598 5.95534 8.0397 6.65012C7.84119 6.94789 7.64268 7.24566 7.44417 7.44417C6.84864 8.0397 7.84119 8.73449 8.23821 9.13151C8.43672 9.33002 8.83375 9.33002 9.13151 9.13151C9.33002 8.933 9.33002 8.53598 9.13151 8.23821L8.53598 7.64268C8.33747 7.54342 8.23821 7.24566 8.43672 7.1464C8.63524 6.94789 8.933 7.1464 8.933 7.1464L9.62779 7.84119C10.1241 8.33747 10.1241 9.13151 9.62779 9.62779ZM4.36725 1.88586C4.16873 1.88586 4.06948 1.7866 4.06948 1.58809C4.06948 1.38958 4.16873 1.29032 4.36725 1.29032C4.56576 1.29032 4.66501 1.38958 4.66501 1.58809C4.66501 1.7866 4.56576 1.88586 4.36725 1.88586ZM2.08437 6.05459C1.88586 6.15385 1.7866 6.05459 1.68734 5.95534C1.38958 5.45906 1.29032 4.96278 1.29032 4.36725C1.29032 3.27543 1.88586 2.18362 2.87841 1.68734C3.07692 1.58809 3.17618 1.68734 3.27543 1.7866C3.37469 1.98511 3.27543 2.08437 3.17618 2.18362C2.38213 2.58065 1.88586 3.47395 1.88586 4.36725C1.88586 4.86352 1.98511 5.26055 2.18362 5.65757C2.28288 5.85608 2.18362 5.95534 2.08437 6.05459Z" fill="black"/>
</svg>
