<svg width="21" height="21" viewBox="0 0 21 21" fill="none" xmlns="http://www.w3.org/2000/svg">
<path fill-rule="evenodd" clip-rule="evenodd" d="M6.875 10.5C6.875 8.25 8.51136 6.5625 10.6932 6.5625C12.875 6.5625 14.5114 8.25 14.5114 10.5C14.5114 12.75 12.875 14.4375 10.6932 14.4375C10.3295 14.4375 10.1477 14.0625 10.1477 13.875C10.1477 13.5 10.5114 13.3125 10.6932 13.3125C12.1477 13.3125 13.2386 12.1875 13.2386 10.6875C13.2386 9.1875 12.1477 8.0625 10.6932 8.0625C9.23864 8.0625 8.14773 9.1875 8.14773 10.6875C8.14773 11.0625 7.78409 11.25 7.60227 11.25C7.23864 11.25 7.05682 10.875 7.05682 10.6875L6.875 10.5ZM8.51136 12.1875C8.875 12.1875 9.05682 12.5625 9.05682 12.75C9.05682 13.125 8.69318 13.3125 8.51136 13.3125C8.14773 13.3125 7.96591 12.9375 7.96591 12.75C7.96591 12.375 8.32955 12.1875 8.51136 12.1875ZM14.1477 4.6875C13.7841 4.6875 13.6023 4.3125 13.6023 4.125C13.6023 3.75 13.9659 3.5625 14.1477 3.5625C14.5114 3.5625 14.6932 3.9375 14.6932 4.125C14.6932 4.5 14.3295 4.6875 14.1477 4.6875ZM18.5114 7.875C19.7841 8.0625 20.875 9.1875 20.875 10.5C20.875 11.8125 19.7841 12.9375 18.5114 13.125C18.1477 13.125 17.7841 13.125 17.7841 13.5C17.6023 13.875 17.7841 14.0625 18.1477 14.4375C18.875 15.375 18.875 16.875 17.9659 18C17.0568 18.9375 15.6023 18.9375 14.5114 18.1875C14.3295 18 13.9659 17.8125 13.6023 17.8125C13.2386 18 13.2386 18.375 13.2386 18.5625C13.2386 18.5625 13.2386 18.5625 13.2386 18.75C13.0568 20.0625 11.9659 21 10.6932 21C9.42045 21 8.32955 20.0625 8.14773 18.5625C8.14773 18.1875 8.14773 17.8125 7.78409 17.8125C7.42045 17.625 7.23864 17.8125 6.875 18.1875C5.96591 18.9375 4.51136 18.9375 3.60227 18C2.69318 17.0625 2.69318 15.5625 3.42045 14.4375C3.60227 14.25 3.78409 13.875 3.78409 13.5C3.60227 13.125 3.23864 13.125 3.05682 13.125C1.78409 12.9375 0.875 11.8125 0.875 10.5C0.875 9.1875 1.96591 8.0625 3.23864 7.875C3.60227 7.875 3.96591 7.875 3.96591 7.5C4.14773 7.125 3.96591 6.9375 3.60227 6.5625C2.875 5.625 2.875 4.125 3.78409 3C4.69318 2.0625 6.14773 2.0625 7.23864 2.8125C7.42045 3 7.78409 3.1875 8.14773 3.1875C8.51136 3 8.51136 2.625 8.51136 2.4375C8.69318 1.125 9.78409 0 11.0568 0C12.3295 0 13.4205 1.125 13.6023 2.4375V2.625C13.6023 3 13.2386 3.1875 13.0568 3.1875C12.6932 3.1875 12.5114 2.8125 12.5114 2.625C12.5114 1.875 11.9659 1.3125 11.2386 1.3125C10.5114 1.3125 9.96591 1.875 9.96591 2.625V3.1875C9.96591 3.5625 9.78409 3.9375 9.23864 4.125C8.875 4.3125 8.69318 4.3125 8.32955 4.5C7.96591 4.6875 7.42045 4.6875 7.05682 4.3125L6.69318 3.9375C6.14773 3.375 5.42045 3.375 4.875 3.9375C4.32955 4.5 4.32955 5.25 4.875 5.8125L5.23864 6.1875C5.60227 6.5625 5.60227 6.9375 5.42045 7.3125C5.23864 7.6875 5.23864 7.875 5.05682 8.25C4.875 8.625 4.51136 9 3.96591 9H3.42045C2.69318 9 2.14773 9.5625 2.14773 10.3125C2.14773 11.0625 2.69318 11.625 3.42045 11.625H3.96591C4.32955 11.625 4.69318 11.8125 4.875 12.375C5.05682 12.75 5.05682 12.9375 5.23864 13.3125C5.42045 13.6875 5.42045 14.25 5.05682 14.625L4.69318 15C4.14773 15.5625 4.14773 16.3125 4.69318 16.875C5.23864 17.4375 5.96591 17.4375 6.51136 16.875L6.875 16.5C7.23864 16.125 7.60227 16.125 7.96591 16.3125C8.32955 16.5 8.51136 16.5 8.875 16.6875C9.23864 16.875 9.60227 17.25 9.60227 17.625V18.1875C9.60227 18.9375 10.1477 19.5 10.875 19.5C11.6023 19.5 12.1477 18.9375 12.1477 18.1875V17.625C12.1477 17.25 12.3295 16.875 12.875 16.6875C13.2386 16.5 13.4205 16.5 13.7841 16.3125C14.1477 16.125 14.6932 16.125 14.875 16.5L15.2386 16.875C15.7841 17.4375 16.5114 17.4375 17.0568 16.875C17.6023 16.3125 17.6023 15.5625 17.0568 15L16.6932 14.625C16.3295 14.25 16.1477 13.875 16.5114 13.3125C16.6932 12.9375 16.6932 12.75 16.875 12.375C17.0568 12 17.4205 11.625 17.7841 11.625H18.3295C19.0568 11.625 19.6023 11.0625 19.6023 10.3125C19.6023 9.5625 19.0568 9 18.3295 9H17.7841C17.4205 9 16.875 8.8125 16.6932 8.25C16.5114 7.875 16.5114 7.6875 16.3295 7.3125C16.1477 6.9375 16.1477 6.375 16.5114 6.1875L16.875 5.8125C17.4205 5.25 17.4205 4.5 16.875 3.9375C16.6932 3.75 16.3295 3.5625 15.9659 3.5625C15.6023 3.5625 15.4205 3.1875 15.4205 3C15.4205 2.625 15.7841 2.4375 15.9659 2.4375C15.9659 2.4375 15.9659 2.4375 16.1477 2.4375C16.6932 2.4375 17.4205 2.8125 17.7841 3.1875C18.6932 4.125 18.6932 5.625 17.9659 6.75C17.7841 6.9375 17.6023 7.3125 17.6023 7.6875C17.7841 8.0625 18.1477 8.0625 18.3295 8.0625L18.5114 7.875Z" fill="black"/>
</svg>
